REM DIRINDEX 1\2,1\3,1\4,1\5
REM DIRNAME folder01,folder02,folder03,folder04,folder05
TITLE ""
FILE "Round-01-012-013.mp3" MP3
  TRACK 01 AUDIO
    TITLE "0:"
    INDEX 01 00:00:00
  TRACK 02 AUDIO
    TITLE "2:cjc093_0135"
    INDEX 01 00:00:03
  TRACK 03 AUDIO
    TITLE "0:"
    INDEX 01 00:01:15
  TRACK 04 AUDIO
    TITLE "3:cjc093_0136"
    INDEX 01 00:01:52
  TRACK 05 AUDIO
    TITLE "0:"
    INDEX 01 00:03:57
  TRACK 06 AUDIO
    TITLE "4:cjc093_0137"
    INDEX 01 00:04:09
  TRACK 07 AUDIO
    TITLE "0:"
    INDEX 01 00:07:58
  TRACK 08 AUDIO
    TITLE "3:cjc093_0138"
    INDEX 01 00:08:72
  TRACK 09 AUDIO
    TITLE "0:"
    INDEX 01 00:09:67
  TRACK 10 AUDIO
    TITLE "4:cjc093_0139"
    INDEX 01 00:10:33
  TRACK 11 AUDIO
    TITLE "0:"
    INDEX 01 00:13:10
  TRACK 12 AUDIO
    TITLE "2:cjc093_0140"
    INDEX 01 00:14:27
  TRACK 13 AUDIO
    TITLE "0:"
    INDEX 01 00:15:25
  TRACK 14 AUDIO
    TITLE "3:cjc093_0141"
    INDEX 01 00:15:62
  TRACK 15 AUDIO
    TITLE "0:"
    INDEX 01 00:17:33
  TRACK 16 AUDIO
    TITLE "4:cjc093_0142"
    INDEX 01 00:17:53
  TRACK 17 AUDIO
    TITLE "0:"
    INDEX 01 00:19:34
  TRACK 18 AUDIO
    TITLE "3:cjc093_0143"
    INDEX 01 00:20:47
  TRACK 19 AUDIO
    TITLE "0:"
    INDEX 01 00:21:51
  TRACK 20 AUDIO
    TITLE "4:cjc093_0144"
    INDEX 01 00:22:34
  TRACK 21 AUDIO
    TITLE "0:"
    INDEX 01 00:24:55
  TRACK 22 AUDIO
    TITLE "2:cjc093_0145"
    INDEX 01 00:25:68
  TRACK 23 AUDIO
    TITLE "0:"
    INDEX 01 00:26:71
  TRACK 24 AUDIO
    TITLE "3:cjc093_0146"
    INDEX 01 00:27:10
  TRACK 25 AUDIO
    TITLE "0:"
    INDEX 01 00:28:60
  TRACK 26 AUDIO
    TITLE "4:cjc093_0147"
    INDEX 01 00:29:13
  TRACK 27 AUDIO
    TITLE "0:"
    INDEX 01 00:32:07
  TRACK 28 AUDIO
    TITLE "2:cjc093_0148"
    INDEX 01 00:33:15
  TRACK 29 AUDIO
    TITLE "0:"
    INDEX 01 00:34:28
  TRACK 30 AUDIO
    TITLE "3:cjc093_0149"
    INDEX 01 00:34:69
  TRACK 31 AUDIO
    TITLE "0:"
    INDEX 01 00:37:63
  TRACK 32 AUDIO
    TITLE "4:cjc093_0150"
    INDEX 01 00:38:14
  TRACK 33 AUDIO
    TITLE "0:"
    INDEX 01 00:40:38
  TRACK 34 AUDIO
    TITLE "2:cjc093_0151"
    INDEX 01 00:41:44
  TRACK 35 AUDIO
    TITLE "0:"
    INDEX 01 00:42:43
  TRACK 36 AUDIO
    TITLE "3:cjc093_0152"
    INDEX 01 00:43:09
  TRACK 37 AUDIO
    TITLE "0:"
    INDEX 01 00:44:69
  TRACK 38 AUDIO
    TITLE "4:cjc093_0153"
    INDEX 01 00:45:14
  TRACK 39 AUDIO
    TITLE "0:"
    INDEX 01 00:47:01
  TRACK 40 AUDIO
    TITLE "3:cjc093_0154"
    INDEX 01 00:48:16
  TRACK 41 AUDIO
    TITLE "0:"
    INDEX 01 00:50:13
  TRACK 42 AUDIO
    TITLE "4:cjc093_0155"
    INDEX 01 00:51:05
  TRACK 43 AUDIO
    TITLE "0:"
    INDEX 01 00:53:49
  TRACK 44 AUDIO
    TITLE "3:cjc093_0156"
    INDEX 01 00:54:62
  TRACK 45 AUDIO
    TITLE "0:"
    INDEX 01 00:56:67
  TRACK 46 AUDIO
    TITLE "4:cjc093_0157"
    INDEX 01 00:57:39
  TRACK 47 AUDIO
    TITLE "0:"
    INDEX 01 01:00:12
  TRACK 48 AUDIO
    TITLE "2:cjc093_0158"
    INDEX 01 01:01:23
  TRACK 49 AUDIO
    TITLE "0:"
    INDEX 01 01:02:24
  TRACK 50 AUDIO
    TITLE "3:cjc093_0159"
    INDEX 01 01:02:67
  TRACK 51 AUDIO
    TITLE "0:"
    INDEX 01 01:04:70
  TRACK 52 AUDIO
    TITLE "4:cjc093_0160"
    INDEX 01 01:05:09
  TRACK 53 AUDIO
    TITLE "0:"
    INDEX 01 01:07:23
  TRACK 54 AUDIO
    TITLE "3:cjc093_0161"
    INDEX 01 01:08:31
  TRACK 55 AUDIO
    TITLE "0:"
    INDEX 01 01:10:30
  TRACK 56 AUDIO
    TITLE "4:cjc093_0162"
    INDEX 01 01:10:65
  TRACK 57 AUDIO
    TITLE "0:"
    INDEX 01 01:13:22
  TRACK 58 AUDIO
    TITLE "3:cjc093_0163"
    INDEX 01 01:14:31
  TRACK 59 AUDIO
    TITLE "0:"
    INDEX 01 01:16:22
  TRACK 60 AUDIO
    TITLE "4:cjc093_0164"
    INDEX 01 01:16:48
  TRACK 61 AUDIO
    TITLE "0:"
    INDEX 01 01:20:04
  TRACK 62 AUDIO
    TITLE "2:cjc093_0165"
    INDEX 01 01:21:18
  TRACK 63 AUDIO
    TITLE "0:"
    INDEX 01 01:22:13
  TRACK 64 AUDIO
    TITLE "3:cjc093_0166"
    INDEX 01 01:22:52
  TRACK 65 AUDIO
    TITLE "0:"
    INDEX 01 01:24:10
  TRACK 66 AUDIO
    TITLE "4:cjc093_0167"
    INDEX 01 01:24:49
  TRACK 67 AUDIO
    TITLE "0:"
    INDEX 01 01:27:36
  TRACK 68 AUDIO
    TITLE "3:cjc093_0168"
    INDEX 01 01:28:51
  TRACK 69 AUDIO
    TITLE "0:"
    INDEX 01 01:29:37
  TRACK 70 AUDIO
    TITLE "4:cjc093_0169"
    INDEX 01 01:29:64
  TRACK 71 AUDIO
    TITLE "0:"
    INDEX 01 01:32:33
